:SAMPLES-PER-SECOND 30
:FULLY-SPECIFIED
:DEGREES
456
root  -10.4883 34.7663 1.41536 -173.645 -20.6926 178.193
RightUpLeg  -2.01351 -23.8573 -2.89025
RightLeg  6.50156 -6.86345 -0.334788
RightFoot  2.17303 0.0133822 -0.123659
RightToes  -25.1643 -0.111238 -0.215738
Spine  -2.90607 2.85056 -1.56726
Spine1  -5.6188 5.18246 -2.32423
HEad  -68.368 -22.7607 15.622
LeftShoulder1  -1.94126e-019 -3.10601e-018 -2.51263e-017
LeftArm  -17.8476 30.9986 -75.5563
LeftForeArm  30.3546 -13.7836 -2.35081
LeftHand  -0.329598 0.69346 8.14287
RightShoulder  -4.96962e-017 0 -2.36833e-017
RightArm  -5.26829 22.5961 51.9435
RightForeArm  -119.917 64.0736 165.011
RightHand  -4.35876 6.3185 -41.6443
LeftUpLeg  -8.1959 -10.7492 1.5537
LeftLeg  5.85977 5.23699 0.198065
LeftFoot  8.00539 -0.0458584 0.839758
LeftToes  -30.1147 2.14545e-006 -7.7278e-009
457
root  -10.4365 34.7763 1.42058 -173.806 -17.9711 178.559
RightUpLeg  -2.02098 -22.6975 -2.5547
RightLeg  5.64004 -5.31015 -0.179368
RightFoot  2.65744 0.0146982 -0.113763
RightToes  -25.4724 -0.114619 -0.2193
Spine  -2.75058 2.60832 -1.62625
Spine1  -5.30058 4.70464 -2.39274
HEad  -69.0331 -25.969 15.9111
LeftShoulder1  -1.94126e-019 -3.10601e-018 -2.51263e-017
LeftArm  -16.3322 29.3594 -75.2629
LeftForeArm  29.5569 -16.734 -2.82519
LeftHand  -0.328472 0.731441 8.17721
RightShoulder  -4.96962e-017 0 -2.36833e-017
RightArm  -7.59839 16.617 51.1668
RightForeArm  -123.024 61.2098 166.751
RightHand  -4.08356 5.91088 -40.5273
LeftUpLeg  -7.79915 -9.51692 1.78796
LeftLeg  5.90255 6.73616 0.259787
LeftFoot  7.6346 -0.055685 1.01437
LeftToes  -29.6165 2.14545e-006 -7.7278e-009
458
root  -10.3942 34.7805 1.42281 -174.104 -15.2288 178.89
RightUpLeg  -2.15849 -20.918 -2.26938
RightLeg  5.40758 -4.33042 -0.128683
RightFoot  2.94576 0.0152166 -0.0845263
RightToes  -26.0116 -0.117443 -0.222268
Spine  -2.52211 2.30903 -1.63402
Spine1  -4.84649 4.14838 -2.34768
HEad  -69.8488 -28.2711 15.8742
LeftShoulder1  -1.94126e-019 -3.10601e-018 -2.51263e-017
LeftArm  -15.2276 27.7601 -75.0671
LeftForeArm  28.9811 -19.0342 -3.17484
LeftHand  -0.327697 0.97277 8.5786
RightShoulder  -4.96962e-017 0 -2.36833e-017
RightArm  -16.1951 11.0285 51.5299
RightForeArm  -125.457 60.0592 167.317
RightHand  -3.76235 5.57647 -38.6418
LeftUpLeg  -7.25386 -8.48952 1.94758
LeftLeg  6.04811 8.46251 0.347578
LeftFoot  7.1996 -0.0650785 1.19596
LeftToes  -28.6496 2.14545e-006 -7.7278e-009
459
root  -10.3514 34.7854 1.42065 -174.439 -12.3703 179.265
RightUpLeg  -2.54712 -18.4266 -1.89151
RightLeg  5.74869 -4.02059 -0.143359
RightFoot  3.0211 0.0159265 -0.0592248
RightToes  -26.2783 -0.119151 -0.225286
Spine  -2.44928 1.90204 -1.6266
Spine1  -4.72637 3.41817 -2.30692
HEad  -69.4334 -29.7344 14.6764
LeftShoulder1  -1.94126e-019 -3.10601e-018 -2.51263e-017
LeftArm  -13.8707 26.9292 -74.4222
LeftForeArm  28.3783 -21.0225 -3.46776
LeftHand  -0.326765 1.11041 8.8149
RightShoulder  -4.96962e-017 0 -2.36833e-017
RightArm  -27.5045 6.28334 52.5499
RightForeArm  -130.692 61.0594 166.534
RightHand  -3.33135 5.55737 -34.5732
LeftUpLeg  -6.67306 -7.36697 2.15787
LeftLeg  6.29396 10.1722 0.460759
LeftFoot  6.70193 -0.069213 1.34358
LeftToes  -27.718 2.14545e-006 -7.7278e-009
460
root  -10.3071 34.7852 1.41877 -174.636 -9.33534 179.586
RightUpLeg  -3.05948 -16.5997 -1.58962
RightLeg  6.12251 -2.83907 -0.119546
RightFoot  3.13411 0.0146308 0.0033306
RightToes  -26.8163 -0.122259 -0.228395
Spine  -2.3664 1.42165 -1.56473
Spine1  -4.58404 2.52883 -2.15846
HEad  -68.4349 -30.8361 12.5497
LeftShoulder1  -1.94126e-019 -3.10601e-018 -2.51263e-017
LeftArm  -12.5345 26.3058 -73.7727
LeftForeArm  27.9424 -22.321 -3.64315
LeftHand  -0.313224 0.794343 7.89431
RightShoulder  -4.96962e-017 0 -2.36833e-017
RightArm  -38.7471 3.98772 53.2435
RightForeArm  -140.643 63.2827 164.589
RightHand  -2.25463 3.84691 -28.0609
LeftUpLeg  -6.20767 -5.70161 2.35213
LeftLeg  6.62126 11.4729 0.584246
LeftFoot  6.22336 -0.0682623 1.41719
LeftToes  -26.9608 2.14545e-006 -7.7278e-009
461
root  -10.2626 34.7802 1.40825 -174.77 -6.07777 179.855
RightUpLeg  -3.4773 -15.2061 -1.36514
RightLeg  6.23976 -1.0166 -0.0442377
RightFoot  3.33041 0.0114302 0.0981491
RightToes  -27.2028 -0.125993 -0.232063
Spine  -2.3158 0.917632 -1.44955
Spine1  -4.5164 1.59725 -1.92934
HEad  -67.1449 -31.625 9.67234
LeftShoulder1  -1.94126e-019 -3.10601e-018 -2.51263e-017
LeftArm  -11.0914 26.0135 -73.0138
LeftForeArm  27.8026 -22.8896 -3.70249
LeftHand  -0.31307 0.782351 7.87107
RightShoulder  -4.96962e-017 0 -2.36833e-017
RightArm  -48.6416 3.21494 53.5924
RightForeArm  -155.482 63.8302 163.144
RightHand  -0.699403 -1.25385 -19.5041
LeftUpLeg  -5.68704 -3.38041 2.52245
LeftLeg  6.86627 12.3368 0.680107
LeftFoot  5.73246 -0.0628717 1.41726
LeftToes  -26.4116 2.14545e-006 -7.7278e-009
462
root  -10.2125 34.7814 1.39142 -174.953 -2.52267 -179.819
RightUpLeg  -4.04855 -12.5958 -1.02084
RightLeg  6.70352 -0.17696 -0.0082155
RightFoot  3.58523 0.0118432 0.146981
RightToes  -27.9256 -0.1299 -0.237293
Spine  -2.21579 0.527658 -1.30737
Spine1  -4.35574 0.895435 -1.67067
HEad  -66.299 -32.4534 6.65343
LeftShoulder1  -1.94126e-019 -3.10601e-018 -2.51263e-017
LeftArm  -9.45701 25.7374 -72.1652
LeftForeArm  27.831 -22.8832 -3.68305
LeftHand  -0.31488 0.568045 7.58619
RightShoulder  -4.96962e-017 0 -2.36833e-017
RightArm  -58.5422 3.54804 53.8083
RightForeArm  -177.244 63.1737 161.712
RightHand  0.533299 -8.68189 -19.2664
LeftUpLeg  -4.983 -0.789046 2.76954
LeftLeg  7.01809 13.2215 0.762914
LeftFoot  5.29681 -0.0578944 1.41311
LeftToes  -25.9038 2.14545e-006 -7.7278e-009
463
root  -10.1666 34.7829 1.37267 -175.022 1.26643 -179.48
RightUpLeg  -4.42522 -10.3507 -0.700623
RightLeg  6.61471 1.32125 0.0687553
RightFoot  4.03901 0.00968786 0.244419
RightToes  -28.5412 -0.134006 -0.2417
Spine  -2.2244 0.0940729 -1.18277
Spine1  -4.39858 0.0793943 -1.44112
HEad  -65.1796 -32.9912 2.70729
LeftShoulder1  -1.94126e-019 -3.10601e-018 -2.51263e-017
LeftArm  -8.26685 25.8406 -71.3322
LeftForeArm  28.3273 -22.2083 -3.57923
LeftHand  -0.321546 0.460186 7.58892
RightShoulder  -4.96962e-017 0 -2.36833e-017
RightArm  -66.6568 4.66927 54.1656
RightForeArm  168.264 62.3727 160.925
RightHand  1.6522 -12.9777 -24.9851
LeftUpLeg  -4.3067 1.76146 3.0297
LeftLeg  7.16374 14.4155 0.86685
LeftFoot  4.85932 -0.0533849 1.41967
LeftToes  -25.4259 2.14545e-006 -7.7278e-009
